<svg width="62" height="66" viewBox="0 0 62 66" fill="none" xmlns="http://www.w3.org/2000/svg">
<path d="M51.3933 27.5165C45.4956 27.8437 43.6325 32.9731 41.7361 38.1944C39.7021 43.7943 37.6297 49.5 30.5 49.5C28.8576 49.5 27.4783 49.0791 26.2902 48.3538M19.5508 38.3679C17.2094 33.1178 14.8858 27.9078 9.63073 27.5228M24.4849 47.594C21.9548 46.2834 19.9461 44.149 18.1436 41.5873C16.6775 39.5035 15.363 37.1579 14.0199 34.7611C13.9693 34.6707 13.9186 34.5803 13.8679 34.4899C12.649 32.3155 11.4022 30.1079 10.0059 28.0629C12.1698 28.3413 13.79 29.525 15.1486 31.2472C16.7105 33.2271 17.8909 35.8737 19.1098 38.6067L19.1531 38.7037C20.3733 41.4393 21.637 44.2543 23.3602 46.3776C23.7135 46.8129 24.0872 47.2206 24.4849 47.594ZM15.9337 30.6278C14.3354 28.6017 12.3104 27.1675 9.50552 27.0137C9.76396 15.6403 19.0646 6.5 30.5 6.5C41.9345 6.5 51.2345 15.6388 51.4944 27.0109C48.3504 27.1485 46.2563 28.5749 44.7235 30.6395C43.2042 32.6859 42.2288 35.3724 41.2769 37.9938C41.2363 38.1057 41.1957 38.2175 41.1551 38.3291C40.1497 41.094 39.1432 43.7625 37.5476 45.7494C35.9803 47.7012 33.8392 49 30.5 49C27.7191 49 25.7415 47.725 24.1367 45.7474C22.5122 43.7457 21.2994 41.0607 20.0663 38.2963C20.0419 38.2416 20.0175 38.1869 19.9931 38.1322C18.7977 35.4513 17.5739 32.707 15.9337 30.6278ZM51.0567 28.0429C49.5022 30.4955 48.1779 32.8904 46.9427 35.1242C46.8644 35.2658 46.7865 35.4067 46.7089 35.547C45.2669 38.153 43.9414 40.5163 42.4859 42.5185C41.0332 44.5167 39.4679 46.131 37.5613 47.2483C37.5512 47.2542 37.5411 47.2601 37.531 47.266C37.8116 46.9855 38.0765 46.688 38.3274 46.3756C40.0443 44.2375 41.1003 41.406 42.0949 38.6709C42.128 38.5799 42.161 38.4891 42.1939 38.3984C43.166 35.7228 44.0966 33.1614 45.5265 31.2355C46.8213 29.4915 48.5178 28.2807 51.0567 28.0429Z" stroke="black"/>
<path d="M35.2224 27.8711C35.3408 28.0138 35.4475 28.2514 35.4854 28.6643C34.6528 29.0017 34.0681 29.4694 33.6373 29.9984C33.1561 30.5894 32.8839 31.2379 32.6649 31.7864C32.6501 31.8235 32.6356 31.8598 32.6214 31.8956C32.4129 32.4191 32.2608 32.8009 32.033 33.0775C31.829 33.3251 31.5512 33.5 31 33.5C30.4327 33.5 30.1254 33.332 29.8993 33.0945C29.6397 32.8219 29.4561 32.4302 29.2093 31.8832L29.1993 31.861C28.7472 30.8589 28.1626 29.5629 26.5115 28.7007C26.5463 28.2652 26.6558 28.0179 26.7776 27.8711C26.9197 27.7 27.1453 27.5856 27.532 27.5328C27.927 27.479 28.417 27.4987 29.0205 27.539C29.1156 27.5453 29.2132 27.5522 29.313 27.5591C29.829 27.5952 30.4036 27.6353 31 27.6353C31.5964 27.6353 32.171 27.5952 32.687 27.5591C32.7868 27.5522 32.8844 27.5453 32.9795 27.539C33.583 27.4987 34.073 27.479 34.468 27.5328C34.8547 27.5856 35.0803 27.7 35.2224 27.8711Z" stroke="black"/>
<path d="M58.1359 0.846764C58.2521 0.785309 58.3534 0.738279 58.4409 0.70283C57.7351 1.31173 57.0778 2.18748 56.4642 3.15358C55.6456 4.44234 54.8556 5.97425 54.1013 7.43702L54.0936 7.45189C53.3305 8.93169 52.6067 10.3339 51.9079 11.401C51.559 11.9339 51.2284 12.3641 50.9163 12.6719C50.5986 12.985 50.3404 13.1312 50.1405 13.1708C49.5493 13.2877 49.1496 13.2223 48.825 13.0667C48.4825 12.9025 48.173 12.6147 47.8011 12.1874C47.6653 12.0315 47.5238 11.8595 47.3725 11.6756C46.7885 10.966 46.058 10.0782 44.9429 9.24248C45.419 8.70282 45.7986 8.39296 46.2646 8.16319C46.8627 7.86832 47.6343 7.68818 49.0024 7.41754C49.4278 7.33338 49.8972 7.10613 50.3703 6.81981C50.8517 6.52846 51.3756 6.15176 51.9162 5.73351C52.6803 5.14237 53.5026 4.44827 54.3068 3.76954C54.6359 3.4917 54.9621 3.21644 55.2799 2.95187C56.3944 2.02412 57.394 1.23911 58.1359 0.846764Z" stroke="black"/>
<path d="M3.17147 0.824252C3.05406 0.765125 2.95181 0.720123 2.86362 0.686425C3.58143 1.28114 4.25606 2.14362 4.88881 3.0973C5.73288 4.3695 6.55323 5.88537 7.33655 7.33281L7.34451 7.34753C8.13695 8.81183 8.88856 10.1993 9.60845 11.2523C9.96796 11.7782 10.3071 12.2017 10.6252 12.5032C10.9491 12.8099 11.2102 12.9509 11.4108 12.9865C12.0042 13.0916 12.4026 13.0183 12.7239 12.8563C13.0631 12.6853 13.3668 12.3913 13.7302 11.9568C13.8628 11.7981 14.0009 11.6234 14.1485 11.4365C14.7182 10.7154 15.4309 9.81323 16.5291 8.95544C16.0423 8.42537 15.6567 8.12314 15.1861 7.9027C14.5823 7.61981 13.8073 7.45507 12.4341 7.21175C12.007 7.13608 11.5332 6.91823 11.0545 6.64139C10.5674 6.35969 10.0361 5.9935 9.48725 5.5861C8.71158 5.01031 7.87556 4.33273 7.05806 3.67016C6.72341 3.39893 6.39187 3.13022 6.06884 2.87203C4.93609 1.96668 3.92102 1.20173 3.17147 0.824252Z" stroke="black"/>
<path d="M26.2274 20.6196C26.1864 20.6824 26.1586 20.7044 26.1479 20.7108C26.1389 20.7116 26.0903 20.7128 25.9721 20.6618C25.8325 20.6015 25.6637 20.499 25.4385 20.353C25.395 20.3248 25.3497 20.2952 25.3028 20.2645C25.1185 20.1439 24.9087 20.0067 24.6851 19.8751C24.1178 19.5411 23.4079 19.2089 22.5454 19.1415C21.7321 19.078 20.8252 19.2529 19.8141 19.8131C18.2269 19.1824 16.8662 18.5709 15.9661 17.9367C15.4951 17.6049 15.1924 17.2954 15.038 17.0124C14.8962 16.7525 14.8744 16.5102 14.9812 16.2387C15.298 15.4334 15.6611 14.9784 16.0326 14.7282C16.3969 14.4828 16.8269 14.3956 17.362 14.4409C17.908 14.487 18.5342 14.6687 19.2573 14.9354C19.6976 15.0978 20.1482 15.2815 20.6258 15.4762C20.9407 15.6046 21.2673 15.7377 21.6105 15.8727C23.2332 16.5112 24.5495 17.4099 25.3715 18.3241C26.1972 19.2424 26.4269 20.0526 26.2274 20.6196ZM26.143 20.713C26.1429 20.7128 26.1443 20.7121 26.1471 20.7112C26.1444 20.7128 26.143 20.7132 26.143 20.713Z" stroke="black"/>
<path d="M34.653 20.6177C34.694 20.6804 34.7217 20.7024 34.7324 20.7088C34.7415 20.7096 34.7901 20.7107 34.9081 20.6598C35.0476 20.5995 35.2164 20.4971 35.4415 20.3511C35.485 20.3229 35.5303 20.2933 35.5772 20.2626C35.7615 20.1421 35.9713 20.0049 36.1948 19.8733C36.762 19.5394 37.4717 19.2072 38.334 19.1399C39.1471 19.0764 40.0538 19.2512 41.0647 19.8113C42.6515 19.1808 44.0118 18.5694 44.9117 17.9354C45.3826 17.6037 45.6851 17.2942 45.8394 17.0114C45.9812 16.7516 46.003 16.5094 45.8962 16.2379C45.5795 15.4329 45.2166 14.978 44.8452 14.7278C44.481 14.4825 44.0511 14.3954 43.5162 14.4406C42.9703 14.4868 42.3442 14.6684 41.6214 14.935C41.1811 15.0974 40.7307 15.2811 40.2532 15.4757C39.9384 15.6041 39.6119 15.7372 39.2688 15.8722C37.6464 16.5104 36.3304 17.409 35.5087 18.3229C34.6832 19.241 34.4536 20.0509 34.653 20.6177ZM34.7374 20.711C34.7374 20.7109 34.736 20.7101 34.7332 20.7092C34.7359 20.7108 34.7374 20.7112 34.7374 20.711Z" stroke="black"/>
<path d="M26 20.5L27.5 27M35 20.5L34.4706 27" stroke="black" stroke-linecap="round" stroke-linejoin="round"/>
<path d="M31 33.5V37V40" stroke="black"/>
<path d="M35.2572 14L38.0145 12.9287L40.2572 11" stroke="black"/>
<path d="M25.2572 14L22.5 12.9287L20.2572 11" stroke="black"/>
<path d="M29 40H31H33" stroke="black"/>
<path d="M43.5 47C43.5 49.2091 38.1797 51 31 51C23.8203 51 18.5 49.7091 18.5 47.5" stroke="black"/>
<line x1="18.5" y1="47.5" x2="18.5" y2="53.5" stroke="black" stroke-linecap="round"/>
<path d="M43.5 47L44 52.5" stroke="black" stroke-linecap="round"/>
<path d="M44 52.5C39 56.5 32.7662 56.5 31 56.5C27.5 56.5 25 56.5 18.5 53.5" stroke="black"/>
<path d="M31.5 57V59V60.5" stroke="black"/>
<path d="M35.1303 58.8064C35.7181 58.4505 36.1844 58.1917 36.4937 58.0993C36.4788 58.2306 36.4365 58.4185 36.3563 58.6644C36.2561 58.9714 36.1081 59.3356 35.9205 59.7376C35.5456 60.541 35.0254 61.4687 34.4524 62.3484C33.8781 63.2299 33.2614 64.0471 32.697 64.6375C32.4142 64.9333 32.1562 65.1597 31.9337 65.3088C31.7004 65.4652 31.5599 65.5 31.5 65.5C31.4401 65.5 31.2996 65.4652 31.0663 65.3088C30.8438 65.1597 30.5858 64.9333 30.303 64.6375C29.7386 64.0471 29.1219 63.2299 28.5476 62.3484C27.9746 61.4687 27.4544 60.541 27.0795 59.7376C26.8919 59.3356 26.7439 58.9714 26.6437 58.6644C26.5635 58.4185 26.5212 58.2306 26.5063 58.0993C26.8156 58.1917 27.2819 58.4505 27.8697 58.8064C28.0055 58.8886 28.1464 58.9751 28.2905 59.0635C28.7501 59.3457 29.2423 59.6478 29.706 59.8955C30.0132 60.0596 30.3219 60.2076 30.6157 60.3155C30.9047 60.4215 31.2091 60.5 31.5 60.5C31.7909 60.5 32.0953 60.4215 32.3843 60.3155C32.6781 60.2076 32.9868 60.0596 33.294 59.8955C33.7577 59.6478 34.2499 59.3457 34.7095 59.0635C34.8536 58.9751 34.9945 58.8886 35.1303 58.8064ZM36.4966 57.9436C36.4963 57.9427 36.4962 57.9422 36.4963 57.9422L36.4966 57.9436ZM26.5037 57.9422C26.5038 57.9422 26.5037 57.9427 26.5034 57.9437L26.5037 57.9422Z" stroke="black"/>
<path d="M29.6314 54.1332C29.6415 54.4092 29.4261 54.6411 29.1501 54.6513C28.8742 54.6615 28.6422 54.446 28.632 54.1701C28.6219 53.8941 28.8373 53.6622 29.1133 53.652C29.3892 53.6418 29.6212 53.8573 29.6314 54.1332ZM26.7727 53.7553C26.7828 54.0312 26.5674 54.2632 26.2914 54.2734C26.0155 54.2835 25.7835 54.0681 25.7733 53.7921C25.7632 53.5162 25.9786 53.2842 26.2546 53.274C26.5305 53.2639 26.7625 53.4793 26.7727 53.7553ZM23.9952 53.0386C24.0053 53.3145 23.7899 53.5465 23.5139 53.5567C23.238 53.5668 23.006 53.3514 22.9958 53.0754C22.9857 52.7995 23.2011 52.5675 23.4771 52.5573C23.753 52.5472 23.985 52.7626 23.9952 53.0386ZM21.46 52.1314C21.4702 52.4073 21.2547 52.6393 20.9788 52.6495C20.7028 52.6596 20.4709 52.4442 20.4607 52.1682C20.4505 51.8923 20.666 51.6603 20.9419 51.6501C21.2179 51.64 21.4499 51.8554 21.46 52.1314Z" stroke="black" stroke-linejoin="round"/>
<path d="M31.5217 54.3116C31.5156 54.5876 31.7346 54.8163 32.0107 54.8223C32.2867 54.8284 32.5154 54.6094 32.5214 54.3333C32.5274 54.0573 32.3085 53.8286 32.0324 53.8226C31.7564 53.8166 31.5277 54.0355 31.5217 54.3116ZM34.3743 53.8906C34.3683 54.1667 34.5872 54.3954 34.8633 54.4014C35.1394 54.4074 35.3681 54.1884 35.3741 53.9124C35.3801 53.6363 35.1612 53.4076 34.8851 53.4016C34.609 53.3956 34.3803 53.6145 34.3743 53.8906ZM37.1407 53.1322C37.1347 53.4082 37.3536 53.6369 37.6297 53.6429C37.9058 53.6489 38.1345 53.43 38.1405 53.1539C38.1465 52.8779 37.9276 52.6492 37.6515 52.6432C37.3754 52.6372 37.1467 52.8561 37.1407 53.1322ZM39.6619 52.1869C39.6559 52.463 39.8748 52.6916 40.1509 52.6977C40.427 52.7037 40.6557 52.4847 40.6617 52.2087C40.6677 51.9326 40.4488 51.7039 40.1727 51.6979C39.8966 51.6919 39.6679 51.9108 39.6619 52.1869Z" stroke="black" stroke-linejoin="round"/>
</svg>
